<svg width="1022" height="1013" viewBox="0 0 1022 1013" fill="none" xmlns="http://www.w3.org/2000/svg">
<path fill-rule="evenodd" clip-rule="evenodd" d="M511 21C240.291 21 21 238.455 21 506.5C21 774.545 240.291 992 511 992C781.709 992 1001 774.545 1001 506.5C1001 238.455 781.709 21 511 21ZM0 506.5C0 226.679 228.872 0 511 0C793.128 0 1022 226.679 1022 506.5C1022 786.321 793.128 1013 511 1013C228.872 1013 0 786.321 0 506.5Z" fill="white"/>
<path d="M99.5 507C99.5 286.671 283.645 107.5 511.5 107.5C739.355 107.5 923.5 286.671 923.5 507C923.5 727.329 739.355 906.5 511.5 906.5C424.606 906.5 344.068 880.443 277.677 835.982L274.746 860.308C342.867 903.446 424.208 928.5 511.5 928.5C750.878 928.5 945.5 740.097 945.5 507C945.5 273.903 750.878 85.5 511.5 85.5C272.122 85.5 77.5 273.903 77.5 507C77.5 611.717 116.778 707.414 181.748 781.062C183.063 773.029 184.893 762.354 186.58 752.651C131.997 684.852 99.5 599.558 99.5 507Z" fill="white"/>
<path d="M633 627C452.5 620.5 236.5 606.5 275 803C494.5 682.5 438 980.5 859 640C838 627 801.5 630 683 698C596.288 739.064 559.519 737.195 511 698C478.5 650 622.5 682 633 627Z" fill="white"/>
<path d="M347 387C333.521 378.051 323 370.5 307.5 358.5C313.948 374.196 318.5 389 326 409C300 409 248.859 391.438 210 313C320 394.818 358 330 416 215.5C405.957 306.982 373 360.5 347 387Z" fill="white"/>
<path d="M300 333.5C321.263 333.5 338.5 316.263 338.5 295C338.5 273.737 321.263 256.5 300 256.5C278.737 256.5 261.5 273.737 261.5 295C261.5 316.263 278.737 333.5 300 333.5Z" fill="white"/>
<path d="M461.5 419C417.5 432.5 369.108 417.99 307.5 361.5C345.5 454 436.794 529.851 497 488.5C483.639 467.95 474.11 444.157 461.5 419Z" fill="white"/>
<path d="M475.5 415C496.897 435.142 507.359 445.605 526.5 458C538.5 442 544.5 432 556.5 413C553.963 405.391 554.5 397.962 554.5 389.5C554.5 361.87 569.148 337.661 591.102 324.215C599 283 605 250.5 612.5 195.5C571.571 305.332 532 385.5 475.5 415Z" fill="white"/>
<path d="M444 398C472.995 398 496.5 374.495 496.5 345.5C496.5 316.505 472.995 293 444 293C415.005 293 391.5 316.505 391.5 345.5C391.5 374.495 415.005 398 444 398Z" fill="white"/>
<path d="M464.5 415C653 595 750 461 834 278.5C792 703 601 690.5 464.5 415Z" fill="white"/>
<path d="M634.5 468.5C676.75 468.5 711 434.25 711 392C711 349.75 676.75 315.5 634.5 315.5C592.25 315.5 558 349.75 558 392C558 434.25 592.25 468.5 634.5 468.5Z" fill="white"/>
</svg>
