<svg width="957" height="557" viewBox="0 0 957 557" fill="none" xmlns="http://www.w3.org/2000/svg">
<path d="M54.6312 437.654H108.573C121.958 437.654 133.546 434.264 143.535 427.485C153.524 420.706 158.519 411.336 158.519 399.173C158.519 391.597 155.922 384.818 151.127 379.036C146.332 373.453 140.338 369.266 133.146 366.475C125.954 363.883 118.362 362.687 110.571 362.687L111.37 362.088C120.959 360.892 129.55 357.303 136.942 351.521C144.334 345.739 148.13 338.761 148.13 330.785C148.13 325.602 146.731 320.816 144.134 316.629C141.337 312.642 137.941 309.252 133.546 306.86C129.151 304.467 124.555 302.473 119.561 301.277C114.566 300.081 109.372 299.283 104.178 299.283H54.6312C54.2316 299.283 53.832 299.483 53.832 299.682C53.6323 300.081 53.6323 300.28 53.832 300.48C54.0318 300.878 54.2316 300.878 54.6312 300.878H64.021C64.8201 300.878 65.4195 301.476 65.4195 302.274V434.663C65.4195 435.66 64.8201 436.059 64.021 436.059H54.6312C54.2316 436.059 53.832 436.258 53.6323 436.458C53.4325 436.856 53.4325 437.056 53.6323 437.255C53.832 437.654 54.2316 437.654 54.6312 437.654ZM103.578 363.285C117.163 363.285 127.552 366.076 135.144 371.26C142.536 376.643 146.332 386.014 146.332 399.173C146.332 411.734 142.736 421.105 135.743 427.087C128.751 433.068 119.761 436.059 108.573 436.059H78.2057C77.2067 436.059 76.8072 435.66 76.8072 434.663V364.68C76.8072 363.883 77.2067 363.285 78.2057 363.285H103.578ZM136.742 330.785C136.742 351.521 124.955 361.69 101.58 361.69H78.2057C77.2067 361.69 76.8072 361.291 76.8072 360.294V302.274C76.8072 301.476 77.2067 300.878 78.2057 300.878H103.578C113.168 300.878 120.959 303.271 127.352 308.056C133.546 312.841 136.742 320.418 136.742 330.785Z" fill="white"/>
<path d="M232.802 392.594V423.697C232.802 428.283 233.801 431.872 235.999 434.464C237.997 437.255 241.193 438.451 245.189 438.451C252.581 438.451 256.377 435.66 256.377 429.679C256.377 429.28 256.177 429.081 255.778 429.081C255.378 429.081 255.178 429.28 255.178 429.679C255.178 431.672 254.579 433.068 253.58 434.264C252.381 435.461 250.983 435.859 249.384 435.859C247.387 435.859 245.788 435.261 244.789 433.666C243.591 432.271 243.191 430.676 243.191 428.682V367.272C243.191 360.493 240.594 355.11 235.4 350.923C230.205 346.736 222.613 344.543 212.225 344.543C201.836 344.543 193.445 347.334 187.052 352.717C180.659 358.101 177.862 364.68 178.461 372.257C178.461 374.649 179.061 376.643 180.259 378.039C182.057 380.83 184.455 381.628 187.252 380.033C190.448 378.438 191.247 375.846 190.049 371.858C187.651 365.677 188.45 359.696 192.646 354.113C196.642 348.53 203.234 345.739 212.225 345.739C219.417 345.739 224.811 347.534 228.008 351.122C231.204 354.711 233.002 359.496 233.002 365.079C233.002 371.061 232.003 375.846 230.005 379.235C228.008 382.824 223.612 385.615 216.82 387.809L205.632 391.198L194.644 394.388C191.847 395.186 188.65 396.382 185.254 397.778C181.658 399.373 179.061 400.768 177.063 402.363C175.065 403.958 173.467 406.152 172.268 408.744C170.869 411.535 170.27 414.526 170.27 417.716C170.27 424.495 172.268 429.679 176.264 433.268C180.259 436.856 186.253 438.651 194.244 438.651C204.233 438.651 212.824 434.464 219.617 425.89C226.409 417.317 230.805 406.152 232.802 392.594ZM196.042 436.258C191.247 436.258 187.651 434.863 185.254 431.672C182.856 428.482 181.658 424.295 181.658 418.912V417.118C181.658 413.13 182.257 409.741 183.855 406.75C185.254 403.958 187.451 401.566 190.448 399.572C193.445 397.578 196.242 396.183 198.639 395.186C201.037 394.189 204.433 392.992 208.828 391.796C213.024 390.6 216.021 389.603 217.819 388.805C222.613 386.812 226.21 385.017 228.407 383.223C230.405 381.428 232.003 379.036 232.802 376.244V385.416C231.604 398.974 227.808 410.937 221.415 421.105C215.022 431.274 206.431 436.258 196.042 436.258Z" fill="white"/>
<path d="M314.092 344.543C302.105 344.543 291.917 347.733 283.925 353.714C275.934 359.696 271.938 368.469 271.938 379.634V381.428C271.938 393.79 276.533 403.36 285.723 410.139C279.929 411.136 275.534 414.127 272.537 418.912C269.341 423.697 268.542 428.881 269.74 434.464C270.939 440.047 274.136 444.034 279.33 446.427C274.535 448.421 271.139 451.81 268.941 456.196C264.946 463.374 265.345 470.552 269.74 477.53C276.134 487.898 289.319 493.082 309.098 493.082H318.887C321.884 493.082 324.681 492.883 327.478 492.484C342.062 490.689 351.852 484.509 356.846 474.141C360.842 466.165 360.642 458.19 356.447 450.614C352.051 442.838 345.259 438.85 335.669 438.85H290.318C285.324 438.85 281.528 437.654 278.731 435.062C275.934 432.47 274.535 429.479 274.535 426.09C274.535 422.9 275.534 419.71 277.932 416.719C280.129 413.728 283.126 411.734 287.122 410.937C294.114 415.722 303.104 418.115 313.893 418.115C327.078 418.115 337.267 414.725 344.659 407.747C352.051 400.968 355.847 392.195 355.847 381.428V379.634C355.847 367.272 350.853 357.901 340.864 351.521C339.865 349.527 339.465 347.534 339.465 345.141C339.265 341.951 341.263 339.16 345.658 336.966C349.854 334.773 354.449 334.374 359.244 335.969C360.043 336.368 361.042 336.368 361.841 336.169C364.238 335.571 365.437 333.976 365.637 331.384C365.836 328.393 364.038 326.598 360.043 325.801C353.25 324.804 347.456 326.997 342.662 332.381C337.667 337.963 336.468 343.945 339.265 350.524C332.073 346.537 323.682 344.543 314.092 344.543ZM314.092 345.54C322.883 345.54 330.075 348.331 336.069 353.914C341.862 359.496 344.859 368.07 344.859 379.634V381.428C344.859 392.394 342.262 401.167 337.068 407.547C331.873 413.928 324.281 417.118 313.893 417.118C303.504 417.118 295.712 413.928 290.518 407.547C285.324 401.167 282.926 392.394 282.926 381.428V379.634C282.926 368.07 285.923 359.496 291.917 353.914C297.91 348.331 305.302 345.54 314.092 345.54ZM290.518 448.819H335.669C341.263 448.819 346.058 450.813 349.654 454.402C353.25 458.19 355.048 462.577 355.048 467.761C355.048 474.34 351.852 479.923 345.858 484.708C339.665 489.493 330.675 491.886 318.887 491.886H309.098C303.304 491.886 298.11 491.288 293.715 489.892C289.12 488.696 285.523 486.901 282.926 484.708C280.329 482.515 278.331 480.122 276.733 477.331C275.135 474.539 274.136 471.748 273.936 468.757C273.536 465.966 273.736 463.175 274.336 460.383C274.735 457.592 275.734 455.199 277.132 452.807C278.531 450.614 280.129 448.819 282.127 447.623C284.525 448.421 287.321 448.819 290.518 448.819Z" fill="white"/>
<path d="M424.782 392.594V423.697C424.782 428.283 425.781 431.872 427.979 434.464C429.976 437.255 433.173 438.451 437.169 438.451C444.561 438.451 448.357 435.66 448.357 429.679C448.357 429.28 448.157 429.081 447.757 429.081C447.358 429.081 447.158 429.28 447.158 429.679C447.158 431.672 446.558 433.068 445.56 434.264C444.361 435.461 442.962 435.859 441.364 435.859C439.366 435.859 437.768 435.261 436.769 433.666C435.57 432.271 435.171 430.676 435.171 428.682V367.272C435.171 360.493 432.574 355.11 427.379 350.923C422.185 346.736 414.593 344.543 404.204 344.543C393.816 344.543 385.425 347.334 379.032 352.717C372.638 358.101 369.842 364.68 370.441 372.257C370.441 374.649 371.04 376.643 372.239 378.039C374.037 380.83 376.434 381.628 379.231 380.033C382.428 378.438 383.227 375.846 382.028 371.858C379.631 365.677 380.43 359.696 384.626 354.113C388.621 348.53 395.214 345.739 404.204 345.739C411.397 345.739 416.791 347.534 419.987 351.122C423.184 354.711 424.982 359.496 424.982 365.079C424.982 371.061 423.983 375.846 421.985 379.235C419.987 382.824 415.592 385.615 408.799 387.809L397.611 391.198L386.623 394.388C383.826 395.186 380.63 396.382 377.234 397.778C373.637 399.373 371.04 400.768 369.042 402.363C367.045 403.958 365.446 406.152 364.248 408.744C362.849 411.535 362.25 414.526 362.25 417.716C362.25 424.495 364.248 429.679 368.243 433.268C372.239 436.856 378.232 438.651 386.224 438.651C396.213 438.651 404.804 434.464 411.596 425.89C418.389 417.317 422.784 406.152 424.782 392.594ZM388.022 436.258C383.227 436.258 379.631 434.863 377.234 431.672C374.836 428.482 373.637 424.295 373.637 418.912V417.118C373.637 413.13 374.237 409.741 375.835 406.75C377.234 403.958 379.431 401.566 382.428 399.572C385.425 397.578 388.222 396.183 390.619 395.186C393.016 394.189 396.413 392.992 400.808 391.796C405.003 390.6 408 389.603 409.798 388.805C414.593 386.812 418.189 385.017 420.387 383.223C422.385 381.428 423.983 379.036 424.782 376.244V385.416C423.583 398.974 419.787 410.937 413.394 421.105C407.001 431.274 398.411 436.258 388.022 436.258Z" fill="white"/>
<path d="M452.33 437.056C452.33 437.455 452.53 437.654 452.93 437.654H482.498C482.897 437.654 483.097 437.455 483.097 437.056C483.097 436.657 482.897 436.458 482.498 436.458H475.106C473.707 436.458 473.108 435.859 473.108 434.464V370.861C475.905 364.282 479.901 358.699 485.095 354.113C490.089 349.727 495.683 347.135 501.877 346.337C509.269 345.54 515.062 347.534 519.058 351.92C523.054 356.306 525.251 361.889 525.251 368.469V423.697C525.251 428.283 526.25 431.872 528.448 434.464C530.446 437.255 533.642 438.451 537.638 438.451C545.03 438.451 548.826 435.66 548.826 429.679C548.826 429.28 548.626 429.081 548.227 429.081C547.827 429.081 547.627 429.28 547.627 429.679C547.627 431.672 547.028 433.068 546.029 434.264C544.83 435.461 543.432 435.859 541.833 435.859C539.836 435.859 538.237 435.261 537.238 433.666C536.04 432.271 535.64 430.676 535.64 428.682V367.272C535.64 361.091 532.843 355.708 527.649 351.322C522.454 346.935 515.062 344.742 505.673 344.742C498.48 344.742 492.087 347.135 486.493 351.521C480.899 355.908 476.304 361.69 473.108 368.668V348.132H476.105C476.504 348.132 476.704 347.932 476.704 347.534C476.704 347.135 476.504 346.935 476.105 346.935H452.73C452.33 346.935 452.131 347.135 452.131 347.534C452.131 347.932 452.33 348.132 452.73 348.132H458.723C461.321 348.53 462.719 350.125 462.719 352.917V434.464C462.719 435.859 461.92 436.458 460.721 436.458H452.93C452.53 436.458 452.33 436.657 452.33 437.056Z" fill="white"/>
<path d="M617.737 392.594V423.697C617.737 428.283 618.736 431.872 620.934 434.464C622.932 437.255 626.128 438.451 630.124 438.451C637.516 438.451 641.312 435.66 641.312 429.679C641.312 429.28 641.112 429.081 640.712 429.081C640.313 429.081 640.113 429.28 640.113 429.679C640.113 431.672 639.514 433.068 638.515 434.264C637.316 435.461 635.918 435.859 634.319 435.859C632.321 435.859 630.723 435.261 629.724 433.666C628.526 432.271 628.126 430.676 628.126 428.682V367.272C628.126 360.493 625.529 355.11 620.334 350.923C615.14 346.736 607.548 344.543 597.16 344.543C586.771 344.543 578.38 347.334 571.987 352.717C565.594 358.101 562.797 364.68 563.396 372.257C563.396 374.649 563.995 376.643 565.194 378.039C566.992 380.83 569.39 381.628 572.187 380.033C575.383 378.438 576.182 375.846 574.983 371.858C572.586 365.677 573.385 359.696 577.581 354.113C581.576 348.53 588.169 345.739 597.16 345.739C604.352 345.739 609.746 347.534 612.942 351.122C616.139 354.711 617.937 359.496 617.937 365.079C617.937 371.061 616.938 375.846 614.94 379.235C612.942 382.824 608.547 385.615 601.755 387.809L590.567 391.198L579.579 394.388C576.782 395.186 573.585 396.382 570.189 397.778C566.593 399.373 563.995 400.768 561.998 402.363C560 403.958 558.401 406.152 557.203 408.744C555.804 411.535 555.205 414.526 555.205 417.716C555.205 424.495 557.203 429.679 561.198 433.268C565.194 436.856 571.188 438.651 579.179 438.651C589.168 438.651 597.759 434.464 604.551 425.89C611.344 417.317 615.739 406.152 617.737 392.594ZM580.977 436.258C576.182 436.258 572.586 434.863 570.189 431.672C567.791 428.482 566.593 424.295 566.593 418.912V417.118C566.593 413.13 567.192 409.741 568.79 406.75C570.189 403.958 572.386 401.566 575.383 399.572C578.38 397.578 581.177 396.183 583.574 395.186C585.972 394.189 589.368 392.992 593.763 391.796C597.959 390.6 600.955 389.603 602.753 388.805C607.548 386.812 611.144 385.017 613.342 383.223C615.34 381.428 616.938 379.036 617.737 376.244V385.416C616.539 398.974 612.743 410.937 606.35 421.105C599.956 431.274 591.366 436.258 580.977 436.258Z" fill="white"/>
<path d="M683.244 345.938C691.635 345.938 697.629 348.132 701.225 352.319C704.621 356.506 705.62 361.69 704.222 367.671C703.822 369.266 703.822 370.662 704.421 371.659C705.221 374.251 707.219 375.248 710.015 374.649C713.012 374.051 714.61 371.858 714.81 368.269C715.01 361.49 712.013 355.708 706.02 351.322C700.026 346.935 692.434 344.742 683.444 344.742C675.453 344.742 668.261 346.935 662.267 351.322C656.274 355.708 653.277 361.291 653.477 368.469C653.477 374.45 655.674 379.435 659.67 383.223C663.666 387.21 668.66 390.002 674.254 391.996L691.036 397.578C696.63 399.373 701.225 401.965 705.221 405.354C709.216 408.744 711.214 412.931 711.214 418.115C711.214 423.498 708.417 428.084 703.023 431.872C697.629 435.859 691.236 437.654 683.844 437.654C673.455 437.654 666.063 434.863 661.668 429.28C657.273 423.697 655.874 417.516 657.672 410.339C658.072 408.744 658.072 407.547 657.672 406.351C656.673 403.759 654.875 402.762 652.078 403.161C648.882 403.958 647.283 406.152 647.283 409.94C646.884 417.716 650.08 424.495 656.673 430.277C663.266 436.059 672.256 438.85 683.644 438.85C693.833 438.85 702.024 436.059 708.217 430.277C714.411 424.694 717.607 418.314 717.607 411.136C717.607 405.155 715.609 400.17 711.614 395.983C707.618 391.796 702.623 388.606 697.03 386.413C691.236 384.419 685.442 382.425 679.848 380.631C674.054 379.036 669.26 376.843 665.264 374.051C661.268 371.459 659.27 368.269 659.27 364.282C659.27 358.3 661.668 353.714 666.662 350.524C671.457 347.534 677.051 345.938 683.244 345.938Z" fill="white"/>
<path d="M724.431 294.099C724.431 294.498 724.631 294.697 725.03 294.697H733.222C735.819 295.096 737.217 296.891 737.217 299.881V434.464C737.217 435.859 736.418 436.458 735.219 436.458H730.425C730.025 436.458 729.825 436.657 729.825 437.056C729.825 437.455 730.025 437.654 730.425 437.654H753.999C754.199 437.654 754.399 437.654 754.598 437.255C754.998 436.856 754.798 436.458 753.999 436.458H749.604C748.205 436.458 747.606 435.859 747.606 434.464V375.048C750.003 367.272 753.599 360.693 758.594 355.509C763.589 350.325 769.582 347.135 776.375 346.337C783.567 345.54 789.361 347.534 793.356 351.92C797.352 356.306 799.35 361.889 799.35 368.469V423.697C799.35 428.283 800.349 431.872 802.547 434.464C804.544 437.255 807.741 438.451 811.737 438.451C819.129 438.451 822.924 435.66 822.924 429.679C822.924 429.28 822.725 429.081 822.325 429.081C821.926 429.081 821.726 429.28 821.726 429.679C821.726 431.672 821.126 433.068 820.128 434.264C818.929 435.461 817.53 435.859 815.932 435.859C813.934 435.859 812.336 435.261 811.337 433.666C810.138 432.271 809.739 430.676 809.739 428.682V367.272C809.739 361.091 807.142 355.708 801.947 351.322C796.753 346.935 789.561 344.742 780.171 344.742C772.579 344.742 765.986 347.334 760.392 352.319C754.798 357.303 750.403 363.683 747.606 371.459V294.697H750.603C751.002 294.697 751.202 294.498 751.202 294.099C751.202 293.701 751.002 293.501 750.603 293.501H725.03C724.631 293.501 724.431 293.701 724.431 294.099Z" fill="white"/>
<path d="M835.516 353.316V423.697C835.516 428.283 836.514 431.872 838.712 434.464C840.71 437.255 843.906 438.451 847.902 438.451C855.294 438.451 859.09 435.66 859.09 429.679C859.09 429.28 858.89 429.081 858.491 429.081C858.091 429.081 857.891 429.28 857.891 429.679C857.891 431.672 857.292 433.068 856.293 434.264C855.094 435.461 853.696 435.859 852.098 435.859C850.1 435.859 848.501 435.261 847.503 433.666C846.304 432.271 845.904 430.676 845.904 428.682V348.132H848.901C849.301 348.132 849.5 347.932 849.5 347.534C849.5 347.135 849.301 346.935 848.901 346.935H825.526C825.127 346.935 824.927 347.135 824.927 347.534C824.927 347.932 825.127 348.132 825.526 348.132H831.52C834.117 348.53 835.516 350.325 835.516 353.316ZM833.717 308.854C833.717 310.847 834.317 312.642 835.516 313.838C836.714 315.034 838.512 315.632 840.51 315.632C842.508 315.632 844.106 315.034 845.305 313.838C846.504 312.642 847.303 310.847 847.303 308.854C847.303 306.86 846.504 305.265 845.305 304.068C844.106 302.872 842.508 302.075 840.51 302.075C838.512 302.075 836.714 302.872 835.516 304.068C834.317 305.265 833.717 306.86 833.717 308.854Z" fill="white"/>
<path d="M873.193 299.881V423.697C873.193 428.482 874.392 432.071 876.989 434.663C879.587 437.255 883.183 438.451 887.578 438.451C894.97 438.451 898.766 435.66 898.766 429.679C898.766 429.28 898.566 429.081 898.166 429.081C897.767 429.081 897.567 429.28 897.567 429.679C897.567 431.672 896.768 433.268 895.569 434.264C894.171 435.461 892.573 435.859 890.774 435.859C888.377 435.859 886.579 435.062 885.38 433.467C884.182 431.872 883.582 430.077 883.582 427.685V294.697H886.579C886.979 294.697 887.178 294.498 887.178 294.099C887.178 293.701 886.979 293.501 886.579 293.501H861.007C860.607 293.501 860.407 293.701 860.407 294.099C860.407 294.498 860.607 294.697 861.007 294.697H869.398C871.795 294.697 873.193 296.492 873.193 299.881Z" fill="white"/>
<path d="M298.427 553.129C300.807 553.129 302.62 552.693 303.867 551.821C305.113 550.948 305.737 549.64 305.737 547.895C305.737 546.841 305.51 545.951 305.057 545.224C304.603 544.46 303.999 543.806 303.243 543.261C302.488 542.679 301.638 542.189 300.693 541.789C299.749 541.353 298.786 540.953 297.803 540.589C296.67 540.153 295.574 539.663 294.517 539.117C293.497 538.572 292.571 537.936 291.74 537.209C290.947 536.482 290.305 535.628 289.813 534.647C289.36 533.665 289.133 532.502 289.133 531.157C289.133 528.213 290.097 525.923 292.023 524.288C293.95 522.616 296.632 521.78 300.07 521.78C301.014 521.78 301.94 521.853 302.847 521.998C303.791 522.107 304.66 522.252 305.453 522.434C306.247 522.616 306.945 522.834 307.55 523.088C308.192 523.343 308.702 523.597 309.08 523.852L307.607 527.614C306.851 527.177 305.812 526.741 304.49 526.305C303.168 525.869 301.694 525.651 300.07 525.651C298.37 525.651 296.897 526.069 295.65 526.905C294.403 527.704 293.78 528.922 293.78 530.558C293.78 531.503 293.95 532.302 294.29 532.957C294.668 533.611 295.159 534.192 295.763 534.701C296.406 535.174 297.142 535.61 297.973 536.01C298.804 536.409 299.711 536.809 300.693 537.209C302.129 537.791 303.432 538.372 304.603 538.954C305.812 539.535 306.832 540.226 307.663 541.026C308.532 541.825 309.193 542.77 309.647 543.861C310.138 544.951 310.383 546.278 310.383 547.841C310.383 550.785 309.344 553.056 307.267 554.656C305.227 556.219 302.28 557 298.427 557C297.18 557 296.009 556.909 294.913 556.727C293.818 556.582 292.836 556.382 291.967 556.128C291.136 555.873 290.399 555.619 289.757 555.364C289.115 555.11 288.623 554.874 288.283 554.656L289.7 550.948C290.456 551.348 291.57 551.821 293.043 552.366C294.517 552.875 296.311 553.129 298.427 553.129Z" fill="white"/>
<path d="M326.816 522.216C328.894 522.216 330.707 522.47 332.256 522.979C333.843 523.488 335.146 524.215 336.166 525.16C337.224 526.069 337.998 527.159 338.489 528.431C339.018 529.703 339.283 531.121 339.283 532.684C339.283 536.21 338.206 538.936 336.053 540.862C333.9 542.752 330.67 543.697 326.363 543.697H322.283V556.291H317.636V523.034C318.316 522.888 319.053 522.761 319.846 522.652C320.677 522.543 321.49 522.452 322.283 522.38C323.114 522.307 323.907 522.271 324.663 522.271C325.456 522.234 326.174 522.216 326.816 522.216ZM327.156 526.087C326.174 526.087 325.23 526.105 324.323 526.141C323.416 526.141 322.736 526.178 322.283 526.251V539.881H326.136C328.97 539.881 331.066 539.335 332.426 538.245C333.824 537.155 334.523 535.355 334.523 532.847C334.523 528.34 332.067 526.087 327.156 526.087Z" fill="white"/>
<path d="M343.476 539.39C343.476 536.373 343.778 533.756 344.383 531.539C344.987 529.322 345.837 527.504 346.933 526.087C348.028 524.633 349.332 523.561 350.843 522.87C352.392 522.143 354.11 521.78 355.999 521.78C357.85 521.78 359.55 522.143 361.099 522.87C362.648 523.561 363.97 524.633 365.066 526.087C366.161 527.504 367.011 529.322 367.616 531.539C368.258 533.756 368.579 536.373 368.579 539.39C368.579 542.407 368.258 545.024 367.616 547.241C367.011 549.458 366.161 551.294 365.066 552.747C363.97 554.201 362.648 555.274 361.099 555.964C359.55 556.655 357.85 557 355.999 557C354.11 557 352.392 556.655 350.843 555.964C349.332 555.274 348.028 554.201 346.933 552.747C345.837 551.294 344.987 549.458 344.383 547.241C343.778 545.024 343.476 542.407 343.476 539.39ZM348.236 539.39C348.236 543.824 348.859 547.223 350.106 549.585C351.353 551.948 353.279 553.129 355.886 553.129C358.53 553.129 360.514 551.948 361.836 549.585C363.158 547.223 363.819 543.824 363.819 539.39C363.819 534.956 363.158 531.557 361.836 529.195C360.514 526.832 358.53 525.651 355.886 525.651C353.279 525.651 351.353 526.832 350.106 529.195C348.859 531.557 348.236 534.956 348.236 539.39Z" fill="white"/>
<path d="M394.589 532.847C394.589 534.919 394.022 536.755 392.889 538.354C391.755 539.917 390.225 541.135 388.299 542.007C388.865 542.879 389.489 543.879 390.169 545.006C390.887 546.096 391.604 547.277 392.322 548.549C393.04 549.785 393.739 551.075 394.419 552.42C395.137 553.729 395.798 555.019 396.402 556.291H391.415C390.282 553.674 389.035 551.166 387.675 548.767C386.353 546.369 385.069 544.424 383.822 542.934C383.596 542.97 383.256 542.988 382.802 542.988C382.387 542.988 382.103 542.988 381.952 542.988H377.986V556.291H373.282V523.034C373.849 522.888 374.491 522.761 375.209 522.652C375.965 522.543 376.72 522.47 377.476 522.434C378.269 522.361 379.043 522.307 379.799 522.271C380.554 522.234 381.234 522.216 381.839 522.216C386.07 522.216 389.243 523.107 391.359 524.888C393.512 526.669 394.589 529.322 394.589 532.847ZM382.236 526.087C381.367 526.087 380.517 526.105 379.686 526.141C378.892 526.141 378.326 526.178 377.986 526.251V539.281H380.989C382.349 539.281 383.558 539.19 384.616 539.008C385.711 538.827 386.637 538.499 387.392 538.027C388.185 537.518 388.79 536.846 389.205 536.01C389.621 535.137 389.829 534.011 389.829 532.629C389.829 531.321 389.621 530.249 389.205 529.413C388.79 528.577 388.242 527.922 387.562 527.45C386.882 526.941 386.07 526.596 385.126 526.414C384.219 526.196 383.256 526.087 382.236 526.087Z" fill="white"/>
<path d="M424.622 522.543V526.36H414.988V556.291H410.342V526.36H400.709V522.543H424.622Z" fill="white"/>
<path d="M470.578 540.862C471.22 541.589 471.881 542.334 472.561 543.097C473.279 543.824 473.997 544.606 474.714 545.442C475.017 544.424 475.281 543.315 475.508 542.116C475.734 540.916 475.904 539.59 476.018 538.136L479.928 538.627C479.701 540.735 479.361 542.625 478.908 544.297C478.492 545.932 477.963 547.423 477.321 548.767C478.19 549.931 479.021 551.13 479.814 552.366C480.608 553.602 481.325 554.91 481.968 556.291H477.038C476.395 555.019 475.678 553.801 474.884 552.638C473.675 554.092 472.316 555.146 470.804 555.801C469.331 556.418 467.782 556.727 466.158 556.727C464.722 556.727 463.438 556.509 462.305 556.073C461.171 555.601 460.208 554.965 459.415 554.165C458.621 553.365 457.998 552.438 457.545 551.384C457.129 550.33 456.921 549.222 456.921 548.059C456.921 546.35 457.375 544.624 458.281 542.879C459.226 541.135 460.699 539.517 462.701 538.027C461.719 536.755 460.926 535.464 460.321 534.156C459.717 532.847 459.415 531.503 459.415 530.121C459.415 528.704 459.641 527.468 460.095 526.414C460.586 525.36 461.228 524.506 462.021 523.852C462.815 523.161 463.721 522.652 464.741 522.325C465.799 521.962 466.876 521.78 467.971 521.78C468.953 521.78 469.917 521.925 470.861 522.216C471.806 522.507 472.637 522.961 473.354 523.579C474.072 524.161 474.639 524.888 475.054 525.76C475.508 526.632 475.734 527.632 475.734 528.758C475.734 530.43 475.168 532.157 474.034 533.938C472.901 535.683 471.107 537.3 468.651 538.79L470.578 540.862ZM464.911 540.753C463.816 541.698 462.985 542.788 462.418 544.024C461.889 545.26 461.625 546.459 461.625 547.622C461.625 549.04 462.002 550.221 462.758 551.166C463.513 552.075 464.439 552.657 465.534 552.911C466.63 553.129 467.82 552.984 469.104 552.475C470.389 551.93 471.56 550.93 472.618 549.476C471.371 547.841 470.068 546.332 468.708 544.951C467.386 543.533 466.12 542.134 464.911 540.753ZM471.484 529.249C471.484 527.941 471.107 526.959 470.351 526.305C469.633 525.651 468.802 525.324 467.858 525.324C466.876 525.324 465.95 525.705 465.081 526.469C464.25 527.196 463.835 528.304 463.835 529.794C463.835 530.848 464.005 531.83 464.344 532.738C464.684 533.647 465.402 534.792 466.498 536.173C468.311 535.083 469.596 533.92 470.351 532.684C471.107 531.448 471.484 530.303 471.484 529.249Z" fill="white"/>
<path d="M536.254 532.847C536.254 534.919 535.687 536.755 534.554 538.354C533.42 539.917 531.89 541.135 529.964 542.007C530.53 542.879 531.154 543.879 531.834 545.006C532.551 546.096 533.269 547.277 533.987 548.549C534.705 549.785 535.404 551.075 536.084 552.42C536.801 553.729 537.462 555.019 538.067 556.291H533.08C531.947 553.674 530.7 551.166 529.34 548.767C528.018 546.369 526.734 544.424 525.487 542.934C525.26 542.97 524.92 542.988 524.467 542.988C524.051 542.988 523.768 542.988 523.617 542.988H519.65V556.291H514.947V523.034C515.514 522.888 516.156 522.761 516.874 522.652C517.629 522.543 518.385 522.47 519.14 522.434C519.934 522.361 520.708 522.307 521.464 522.271C522.219 522.234 522.899 522.216 523.504 522.216C527.735 522.216 530.908 523.107 533.024 524.888C535.177 526.669 536.254 529.322 536.254 532.847ZM523.9 526.087C523.032 526.087 522.182 526.105 521.35 526.141C520.557 526.141 519.99 526.178 519.65 526.251V539.281H522.654C524.014 539.281 525.223 539.19 526.28 539.008C527.376 538.827 528.301 538.499 529.057 538.027C529.85 537.518 530.455 536.846 530.87 536.01C531.286 535.137 531.494 534.011 531.494 532.629C531.494 531.321 531.286 530.249 530.87 529.413C530.455 528.577 529.907 527.922 529.227 527.45C528.547 526.941 527.735 526.596 526.79 526.414C525.884 526.196 524.92 526.087 523.9 526.087Z" fill="white"/>
<path d="M545.32 556.291V522.543H564.983V526.36H549.967V536.718H563.113V540.535H549.967V552.475H566.23V556.291H545.32Z" fill="white"/>
<path d="M581.756 553.129C584.136 553.129 585.95 552.693 587.196 551.821C588.443 550.948 589.066 549.64 589.066 547.895C589.066 546.841 588.84 545.951 588.386 545.224C587.933 544.46 587.328 543.806 586.573 543.261C585.817 542.679 584.967 542.189 584.023 541.789C583.079 541.353 582.115 540.953 581.133 540.589C580 540.153 578.904 539.663 577.846 539.117C576.826 538.572 575.901 537.936 575.07 537.209C574.276 536.482 573.634 535.628 573.143 534.647C572.69 533.665 572.463 532.502 572.463 531.157C572.463 528.213 573.426 525.923 575.353 524.288C577.28 522.616 579.962 521.78 583.4 521.78C584.344 521.78 585.27 521.853 586.176 521.998C587.121 522.107 587.99 522.252 588.783 522.434C589.576 522.616 590.275 522.834 590.88 523.088C591.522 523.343 592.032 523.597 592.409 523.852L590.936 527.614C590.181 527.177 589.142 526.741 587.82 526.305C586.497 525.869 585.024 525.651 583.4 525.651C581.7 525.651 580.226 526.069 578.98 526.905C577.733 527.704 577.11 528.922 577.11 530.558C577.11 531.503 577.28 532.302 577.62 532.957C577.997 533.611 578.489 534.192 579.093 534.701C579.735 535.174 580.472 535.61 581.303 536.01C582.134 536.409 583.041 536.809 584.023 537.209C585.458 537.791 586.762 538.372 587.933 538.954C589.142 539.535 590.162 540.226 590.993 541.026C591.862 541.825 592.523 542.77 592.976 543.861C593.467 544.951 593.713 546.278 593.713 547.841C593.713 550.785 592.674 553.056 590.596 554.656C588.556 556.219 585.61 557 581.756 557C580.51 557 579.339 556.909 578.243 556.727C577.147 556.582 576.165 556.382 575.296 556.128C574.465 555.873 573.729 555.619 573.086 555.364C572.444 555.11 571.953 554.874 571.613 554.656L573.03 550.948C573.785 551.348 574.9 551.821 576.373 552.366C577.846 552.875 579.641 553.129 581.756 553.129Z" fill="white"/>
<path d="M598.473 539.39C598.473 536.373 598.775 533.756 599.379 531.539C599.984 529.322 600.834 527.504 601.929 526.087C603.025 524.633 604.328 523.561 605.839 522.87C607.388 522.143 609.107 521.78 610.996 521.78C612.847 521.78 614.547 522.143 616.096 522.87C617.645 523.561 618.967 524.633 620.062 526.087C621.158 527.504 622.008 529.322 622.612 531.539C623.255 533.756 623.576 536.373 623.576 539.39C623.576 542.407 623.255 545.024 622.612 547.241C622.008 549.458 621.158 551.294 620.062 552.747C618.967 554.201 617.645 555.274 616.096 555.964C614.547 556.655 612.847 557 610.996 557C609.107 557 607.388 556.655 605.839 555.964C604.328 555.274 603.025 554.201 601.929 552.747C600.834 551.294 599.984 549.458 599.379 547.241C598.775 545.024 598.473 542.407 598.473 539.39ZM603.233 539.39C603.233 543.824 603.856 547.223 605.103 549.585C606.349 551.948 608.276 553.129 610.883 553.129C613.527 553.129 615.51 551.948 616.833 549.585C618.155 547.223 618.816 543.824 618.816 539.39C618.816 534.956 618.155 531.557 616.833 529.195C615.51 526.832 613.527 525.651 610.883 525.651C608.276 525.651 606.349 526.832 605.103 529.195C603.856 531.557 603.233 534.956 603.233 539.39Z" fill="white"/>
<path d="M649.585 532.847C649.585 534.919 649.019 536.755 647.885 538.354C646.752 539.917 645.222 541.135 643.295 542.007C643.862 542.879 644.485 543.879 645.165 545.006C645.883 546.096 646.601 547.277 647.319 548.549C648.037 549.785 648.735 551.075 649.415 552.42C650.133 553.729 650.794 555.019 651.399 556.291H646.412C645.279 553.674 644.032 551.166 642.672 548.767C641.35 546.369 640.066 544.424 638.819 542.934C638.592 542.97 638.252 542.988 637.799 542.988C637.383 542.988 637.1 542.988 636.949 542.988H632.982V556.291H628.279V523.034C628.846 522.888 629.488 522.761 630.206 522.652C630.961 522.543 631.717 522.47 632.472 522.434C633.266 522.361 634.04 522.307 634.796 522.271C635.551 522.234 636.231 522.216 636.836 522.216C641.067 522.216 644.24 523.107 646.355 524.888C648.509 526.669 649.585 529.322 649.585 532.847ZM637.232 526.087C636.363 526.087 635.513 526.105 634.682 526.141C633.889 526.141 633.322 526.178 632.982 526.251V539.281H635.986C637.346 539.281 638.554 539.19 639.612 539.008C640.708 538.827 641.633 538.499 642.389 538.027C643.182 537.518 643.787 536.846 644.202 536.01C644.618 535.137 644.825 534.011 644.825 532.629C644.825 531.321 644.618 530.249 644.202 529.413C643.787 528.577 643.239 527.922 642.559 527.45C641.879 526.941 641.067 526.596 640.122 526.414C639.216 526.196 638.252 526.087 637.232 526.087Z" fill="white"/>
<path d="M679.618 522.543V526.36H669.985V556.291H665.339V526.36H655.705V522.543H679.618Z" fill="white"/>
<rect y="468.648" width="245.848" height="7.68276" fill="white"/>
<rect x="376.455" y="468.648" width="580.048" height="7.68276" fill="white"/>
<path d="M425.853 280.457L429.4 287.14L436.891 288.429L431.593 293.848L432.675 301.328L425.853 297.993L419.031 301.328L420.113 293.848L414.815 288.429L422.306 287.14L425.853 280.457Z" fill="white"/>
<path d="M460.672 280.457L464.219 287.14L471.71 288.429L466.411 293.848L467.493 301.328L460.672 297.993L453.85 301.328L454.932 293.848L449.633 288.429L457.124 287.14L460.672 280.457Z" fill="white"/>
<path d="M495.49 280.457L499.037 287.14L506.528 288.429L501.23 293.848L502.312 301.328L495.49 297.993L488.668 301.328L489.75 293.848L484.452 288.429L491.943 287.14L495.49 280.457Z" fill="white"/>
<path d="M530.308 280.457L533.856 287.14L541.347 288.429L536.048 293.848L537.13 301.328L530.308 297.993L523.487 301.328L524.569 293.848L519.27 288.429L526.761 287.14L530.308 280.457Z" fill="white"/>
<path d="M418.728 61.3091H445.682V207.407H418.728C427.173 203.143 431.487 200.336 434.13 190.331V78.3856C430.841 69.3005 427.624 65.4186 418.728 61.3091Z" fill="white"/>
<path fill-rule="evenodd" clip-rule="evenodd" d="M493.915 61.3091H453.383V207.407H508.101C540.744 188.231 536.474 134.358 502.021 128.591C531.162 111.424 520.261 70.9209 493.915 61.3091ZM465.542 78.6287V128.61C466.85 128.61 468.14 128.618 469.411 128.626C485.851 128.728 499.125 128.81 506.075 111.309C514.181 84.3957 485.985 61.8099 465.542 78.6287ZM465.542 196.026V138.256C467.288 138.256 469.03 138.245 470.762 138.235C491.812 138.103 511.549 137.98 520.261 157.445C526.341 188.202 497.968 211.271 465.542 196.026Z" fill="white"/>
<path d="M511.14 65.1538C533.966 88.9661 533.966 100.872 520.271 126.669C552.227 106.825 536.249 75.0756 511.14 65.1538Z" fill="white"/>
<path d="M524.06 133.908C545.538 160.121 545.012 172.76 530.355 199.585C562.773 179.828 548.405 145.469 524.06 133.908Z" fill="white"/>
<path fill-rule="evenodd" clip-rule="evenodd" d="M423.906 0.631677C415.226 6.60966 410.787 16.2569 406.725 25.1145C398.81 42.3752 386.472 54.4713 369.061 62.7997C360.29 66.9948 350.738 71.5789 344.899 80.3698L344.608 80.808L344.58 81.3339C344.26 87.4483 344.229 92.0699 345.117 95.428C345.411 96.5425 345.816 97.5573 346.365 98.4623C353.096 123.731 352.401 142.012 346.337 168.534C346.295 168.715 346.281 168.897 346.291 169.074C345.779 169.947 345.398 170.92 345.117 171.984C344.229 175.342 344.26 179.964 344.58 186.078L344.608 186.604L344.899 187.042C350.738 195.833 360.29 200.417 369.061 204.612C386.472 212.941 398.81 225.037 406.725 242.298C410.787 251.155 415.226 260.802 423.906 266.78L424.339 267.078L424.862 267.113C430.95 267.517 435.554 267.61 438.912 266.764C440.537 266.355 441.954 265.708 443.133 264.713C467.829 258.183 485.89 258.873 511.842 264.811C512.997 265.75 514.374 266.368 515.946 266.764C519.303 267.61 523.907 267.517 529.995 267.113L530.518 267.078L530.951 266.78C539.631 260.802 544.07 251.155 548.132 242.298C556.047 225.037 568.385 212.941 585.797 204.612C594.567 200.417 604.119 195.833 609.958 187.042L610.249 186.604L610.277 186.078C610.598 179.964 610.628 175.342 609.741 171.984C609.521 171.153 609.24 170.378 608.884 169.662C609.02 169.315 609.056 168.924 608.967 168.534C602.899 141.996 602.207 123.71 608.95 98.4183C609.028 98.1256 609.034 97.8307 608.98 97.5523C609.291 96.892 609.541 96.1829 609.741 95.428C610.628 92.0699 610.598 87.4483 610.277 81.3339L610.249 80.808L609.958 80.3698C604.119 71.5789 594.567 66.9948 585.797 62.7997C568.385 54.4713 556.047 42.3752 548.132 25.1145C544.07 16.2569 539.631 6.60966 530.951 0.631677L530.518 0.333694L529.995 0.298962C523.907 -0.104835 519.303 -0.197481 515.946 0.648216C514.374 1.04407 512.997 1.66171 511.842 2.60158C485.89 8.53884 467.829 9.22957 443.133 2.69922C441.954 1.70425 440.537 1.05762 438.912 0.648216C435.554 -0.197481 430.95 -0.104835 424.862 0.298962L424.339 0.333694L423.906 0.631677ZM604.061 102.149C603.792 102.259 603.516 102.362 603.232 102.457C599.509 103.702 596.212 104.341 593.35 104.187C590.409 123.31 590.417 139.518 593.477 163.219C596.309 163.09 599.564 163.728 603.232 164.956C603.618 165.085 603.991 165.228 604.349 165.387C599.352 142.08 598.729 124.542 604.061 102.149ZM589.713 163.946C586.576 139.754 586.553 123.108 589.596 103.423C586.95 102.404 585.004 100.422 583.681 97.617C581.362 92.7039 584.1 84.2032 593.262 80.563C587.723 75.4627 582.373 72.8774 577.178 70.3664C576.472 70.0254 575.769 69.6857 575.069 69.3412C564.027 63.9097 546.689 46.8496 541.471 35.7927C541.137 35.0861 540.808 34.375 540.478 33.6629C538.046 28.4149 535.542 23.0112 530.535 17.3848C526.785 26.5301 518.279 29.164 513.415 26.7711C511.001 25.5832 509.212 23.9318 508.143 21.7659C483.512 25.0081 466.737 25.0101 446.687 21.8217C445.614 23.9602 443.836 25.5934 441.442 26.7711C436.578 29.164 428.072 26.5301 424.323 17.3848C419.316 23.0112 416.811 28.4147 414.38 33.6626C414.05 34.3739 413.719 35.0869 413.386 35.7927C408.169 46.8496 390.83 63.9097 379.789 69.3412C379.088 69.6857 378.385 70.0254 377.68 70.3664C372.484 72.8774 367.134 75.4627 361.596 80.563C370.757 84.2032 373.496 92.7039 371.177 97.617C369.924 100.271 368.114 102.189 365.681 103.25C368.758 123.056 368.737 139.761 365.569 164.114C368.059 165.165 369.905 167.1 371.177 169.795C373.496 174.708 370.757 183.209 361.596 186.849C367.134 191.949 372.484 194.535 377.68 197.046L377.684 197.048L377.688 197.05C378.391 197.389 379.091 197.728 379.789 198.071C390.83 203.502 408.169 220.563 413.386 231.62C413.719 232.324 414.048 233.034 414.377 233.744L414.38 233.75C416.811 238.997 419.316 244.401 424.323 250.027C428.072 240.882 436.578 238.248 441.442 240.641C443.836 241.819 445.614 243.452 446.687 245.59C466.737 242.402 483.512 242.404 508.143 245.646C509.212 243.48 511.001 241.829 513.415 240.641C518.279 238.248 526.785 240.882 530.535 250.027C535.542 244.401 538.046 238.997 540.478 233.75C540.807 233.038 541.138 232.325 541.471 231.62C546.689 220.563 564.027 203.502 575.069 198.071C575.769 197.726 576.472 197.387 577.178 197.046C582.373 194.535 587.723 191.949 593.262 186.849C584.1 183.209 581.362 174.708 583.681 169.795C585.024 166.949 587.007 164.95 589.713 163.946ZM593.053 100.314C592.794 100.087 592.471 99.9278 592.107 99.868C591.801 99.8178 591.501 99.8431 591.225 99.9304C589.461 99.3315 588.137 98.0884 587.138 95.9731C585.881 93.3091 587.345 85.6608 597.326 83.3038L600.597 82.5313L598.266 80.1026C591.425 72.9774 584.744 69.7547 578.835 66.9039C578.129 66.5637 577.435 66.2288 576.753 65.8931C570.754 62.9422 561.274 57.6778 556.916 50.4489C553.09 46.6089 547.788 40.2083 544.929 34.149C544.604 33.4618 544.281 32.7627 543.953 32.0525L543.95 32.0461C541.189 26.0775 538.067 19.33 531.06 12.3693L528.672 9.99664L527.858 13.2691C525.376 23.2537 517.737 24.6206 515.099 23.323C512.704 22.1446 511.452 20.553 511.004 18.3748C510.525 16.0432 510.921 12.808 512.469 8.34839C512.887 7.14497 513.415 6.33335 514.06 5.74848C514.708 5.16132 515.589 4.69708 516.877 4.37277C519.48 3.71705 523.331 3.71995 529.21 4.09598C536.606 9.39952 540.591 17.8545 544.656 26.72L544.913 27.2801C548.538 35.1891 553.09 42.7688 559.064 48.7573C564.249 55.5868 575.765 62.2576 583.596 66.0011L584.15 66.2662C592.929 70.4651 601.299 74.5776 606.483 82.0703C606.779 87.9753 606.73 91.8397 606.042 94.4434C605.702 95.7312 605.228 96.6097 604.634 97.2517C604.043 97.8912 603.227 98.4106 602.022 98.8136C598.191 100.095 595.269 100.538 593.053 100.314ZM350.998 165.183C355.941 142.044 356.555 124.577 351.288 102.339C351.399 102.379 351.512 102.419 351.625 102.457C355.541 103.767 358.987 104.405 361.949 104.157C364.896 123.3 364.888 139.518 361.823 163.245C358.889 163.025 355.486 163.664 351.625 164.956C351.412 165.027 351.203 165.102 350.998 165.183ZM363.197 99.868C363.406 99.8336 363.613 99.8347 363.812 99.8668C365.486 99.2456 366.755 98.0162 367.719 95.9731C368.976 93.3091 367.512 85.6608 357.531 83.3038L354.26 82.5313L356.592 80.1026C363.433 72.9774 370.113 69.7547 376.023 66.9039C376.728 66.5637 377.422 66.2288 378.105 65.8931C384.103 62.9422 393.583 57.6778 397.941 50.4489C401.767 46.6089 407.069 40.2083 409.928 34.149C410.254 33.4597 410.578 32.7585 410.908 32.0461C413.669 26.0775 416.79 19.3301 423.797 12.3693L426.185 9.99664L426.999 13.2691C429.481 23.2537 437.12 24.6206 439.758 23.323C442.153 22.1446 443.406 20.553 443.853 18.3748C444.332 16.0432 443.936 12.808 442.388 8.34839C442.053 7.38317 441.647 6.67 441.166 6.12372C440.798 5.96022 440.5 5.68817 440.302 5.35664C439.714 4.95168 438.966 4.62117 437.98 4.37277C435.377 3.71705 431.526 3.71995 425.647 4.09598C418.252 9.39952 414.267 17.8545 410.201 26.72L409.944 27.2801C406.32 35.1891 401.767 42.7688 395.794 48.7573C390.608 55.5868 379.092 62.2576 371.261 66.0011L370.707 66.2662C361.929 70.4651 353.558 74.5776 348.374 82.0703C348.078 87.9753 348.127 91.8397 348.815 94.4434C349.155 95.7312 349.63 96.6097 350.223 97.2517C350.815 97.8912 351.63 98.4106 352.835 98.8136C356.98 100.2 360.059 100.605 362.333 100.246C362.577 100.055 362.871 99.9216 363.197 99.868ZM446.113 7.41079C468.333 12.7452 485.751 12.1551 508.814 7.20598C507.391 11.338 506.728 14.9506 507.079 18.0325C483.252 21.1357 467.025 21.1255 447.769 18.1054C448.134 15.0585 447.499 11.49 446.113 7.41079ZM446.113 260.001C447.499 255.922 448.134 252.354 447.769 249.307C467.025 246.287 483.252 246.276 507.079 249.38C506.728 252.462 507.391 256.074 508.814 260.206C485.751 255.257 468.333 254.667 446.113 260.001ZM442.388 259.064C442.053 260.029 441.647 260.742 441.166 261.288C440.798 261.452 440.5 261.724 440.302 262.055C439.715 262.46 438.966 262.791 437.98 263.039C435.377 263.695 431.526 263.692 425.647 263.316C418.252 258.013 414.267 249.558 410.201 240.692L409.944 240.132C406.32 232.223 401.767 224.643 395.794 218.655C390.608 211.825 379.092 205.155 371.261 201.411L370.707 201.146C361.929 196.947 353.558 192.835 348.374 185.342C348.078 179.437 348.127 175.572 348.815 172.969C349.155 171.681 349.63 170.802 350.223 170.16C350.815 169.521 351.63 169.002 352.835 168.599C357.299 167.105 360.527 166.751 362.844 167.263C365.008 167.741 366.577 169.019 367.719 171.439C368.976 174.103 367.512 181.751 357.531 184.108L354.26 184.881L356.592 187.31C363.433 194.435 370.113 197.657 376.023 200.508L376.028 200.511C376.731 200.85 377.424 201.184 378.105 201.519C384.103 204.47 393.583 209.734 397.941 216.963C401.767 220.803 407.069 227.204 409.928 233.263C410.253 233.952 410.577 234.652 410.906 235.364C413.667 241.332 416.79 248.082 423.797 255.043L426.185 257.416L426.999 254.143C429.481 244.159 437.12 242.792 439.758 244.089C442.153 245.268 443.406 246.859 443.853 249.037C444.332 251.369 443.936 254.604 442.388 259.064ZM576.753 201.519C570.754 204.47 561.274 209.734 556.916 216.963C553.09 220.803 547.788 227.204 544.929 233.263C544.603 233.952 544.279 234.654 543.95 235.366C541.189 241.335 538.067 248.082 531.06 255.043L528.672 257.416L527.858 254.143C525.376 244.159 517.737 242.792 515.099 244.089C512.704 245.268 511.452 246.859 511.004 249.037C510.525 251.369 510.921 254.604 512.469 259.064C512.887 260.267 513.415 261.079 514.06 261.664C514.708 262.251 515.589 262.715 516.877 263.039C519.48 263.695 523.331 263.692 529.21 263.316C536.606 258.013 540.591 249.558 544.656 240.692L544.913 240.132C548.538 232.223 553.09 224.643 559.064 218.655C564.249 211.825 575.765 205.155 583.596 201.411L584.15 201.146C592.929 196.947 601.299 192.835 606.483 185.342C606.779 179.437 606.73 175.572 606.042 172.969C605.702 171.681 605.228 170.802 604.634 170.16C604.043 169.521 603.227 169.002 602.022 168.599C597.558 167.105 594.33 166.751 592.013 167.263C589.849 167.741 588.28 169.019 587.138 171.439C585.881 174.103 587.345 181.751 597.326 184.108L600.597 184.881L598.266 187.31C591.425 194.435 584.744 197.657 578.835 200.508C578.13 200.848 577.434 201.184 576.753 201.519Z" fill="white"/>
</svg>
