<svg width="515" height="511" viewBox="0 0 515 511" fill="none" xmlns="http://www.w3.org/2000/svg">
<path fill-rule="evenodd" clip-rule="evenodd" d="M256.5 439C350.112 439 426 363.112 426 269.5C426 175.888 350.112 100 256.5 100C162.888 100 87 175.888 87 269.5C87 363.112 162.888 439 256.5 439ZM256.5 448C355.083 448 435 368.083 435 269.5C435 170.917 355.083 91.0002 256.5 91.0002C157.917 91.0002 78 170.917 78 269.5C78 368.083 157.917 448 256.5 448Z" fill="white"/>
<path d="M253 220C265.814 219.805 265.253 237.835 262 248.5C177.5 277.741 172.5 261.5 124.5 249.5L134 261.5C144.899 271.846 165.974 276.988 180.5 278C186.673 277.866 208.061 279.441 199.5 290.5C196.476 294.206 192.605 295.876 190.084 296.964L190 297C168.278 303.178 155.062 301.403 132 299.5C175.593 329.687 222.278 305.543 264 287C287.483 279.317 298.504 289.056 289.5 310.5C258.581 340.296 250.63 357.07 249.5 380.5L267.5 358L294 335L327 313C337.392 305.029 342.021 299.551 347 287C348.952 279.97 349.279 276.03 347 269L334 246.5C333.419 243.014 333.491 241.186 337 239C347.03 229.388 349 232 349 215C349 208.604 357.096 205.073 352.5 196C349 199.5 340.561 198.469 335.5 201L315 208C308.984 195.317 303.971 188.794 288.5 179.5C278.097 176.458 271.985 176.408 260.5 179.5C231.832 194.012 213.059 210.346 180.5 202.5C173.779 198.577 170.255 198.438 164.5 202.5C187.752 223.171 224.018 220.442 253 220Z" fill="white"/>
<path d="M39.052 241.255C36.4003 248.494 34.2608 255.815 32.6211 263.138C35.1442 258.701 39.5037 254.966 43.775 253.995C44.103 261.409 38.3013 268.597 31.1959 270.19C30.7541 272.638 30.3678 275.084 30.0366 277.525C33.1636 272.666 37.9552 268.765 42.8512 267.614C43.9241 276.913 37.5702 285.999 28.895 288.767C28.718 291.399 28.6054 294.019 28.5567 296.623C32.1529 291.116 37.3678 286.616 42.7003 284.986C43.8849 295.057 37.7304 305.392 28.8761 310.005C29.1597 314.215 29.6163 318.363 30.243 322.432C32.9635 315.517 38.2638 309.397 44.3176 306.975C47.35 317.599 41.9796 329.245 32.6605 334.5C33.6192 338.353 34.7421 342.111 36.0267 345.756C37.861 336.319 43.2653 326.961 50.0944 322.535C54.4547 334.234 49.9843 348.806 40.6215 356.885C43.7731 363.488 47.5694 369.816 51.7998 375.878C50.5844 363.661 54.0378 350.351 61.2683 342.521C71.8694 355.628 71.5497 375.657 61.8869 388.982C66.3733 394.325 71.1059 399.437 75.9081 404.325C72.1102 392.975 73.3509 379.27 79.7307 370.563C92.657 381.324 94.954 400.682 86.1212 414.343C90.9681 418.949 95.7593 423.333 100.315 427.5L100.315 427.501C102.054 429.092 103.759 430.651 105.419 432.18C106.7 433.23 106.887 435.12 105.836 436.402C104.786 437.683 102.896 437.87 101.614 436.819C95.2813 431.626 88.806 426.089 82.4246 420.186C66.2965 429.623 45.1557 424.869 35.142 408.206C44.1577 402.494 56.7613 401.821 67.6503 405.564C64.0204 401.695 60.4901 397.689 57.1093 393.544C39.8194 395.847 21.1526 384.884 15.6613 367.909C24.3042 366.446 34.6567 369.147 43.3845 374.431C40.1699 369.257 37.2417 363.895 34.6728 358.339C20.4471 358.826 5.6285 349.533 0.93042 335.826C9.88399 334.465 21.0434 338.231 29.3926 344.729C28.5201 341.975 27.7386 339.162 27.0505 336.298C13.7908 333.844 2.6552 321.578 2.44071 307.758C10.4846 308.719 18.9774 314.531 24.4603 322.075C23.9939 318.389 23.6732 314.645 23.5025 310.857C11.7673 306.844 2.65395 294.549 3.2617 281.934C11.0039 283.728 18.8857 290.502 23.4756 298.552C23.5664 296.295 23.7099 294.029 23.9069 291.755C14.1245 287.087 8.10051 274.721 11.052 264.075C17.6289 267.251 23.2077 275.499 24.8266 283.702C25.4138 279.563 26.1798 275.412 27.1298 271.265C19.6595 264.959 16.729 253.13 21.1219 244.189C25.6366 247.524 28.9504 253.86 30.0635 260.359C31.0715 257.104 32.1969 253.861 33.4422 250.639C27.6036 244.767 26.4339 234.329 31.279 227.419C34.9116 231.092 36.8197 237.673 36.3498 243.646C36.9239 242.359 37.5178 241.075 38.1317 239.797C35.549 232.959 37.9553 224.166 44.0884 219.94C46.9255 226.227 44.6739 236.625 39.052 241.255Z" fill="white"/>
<path d="M476.465 241.315C479.116 248.554 481.256 255.875 482.896 263.198C480.372 258.762 476.013 255.027 471.742 254.055C471.414 261.469 477.215 268.658 484.321 270.25C484.763 272.698 485.149 275.144 485.48 277.585C482.353 272.726 477.561 268.826 472.665 267.674C471.592 276.973 477.946 286.059 486.622 288.827C486.799 291.459 486.911 294.079 486.96 296.684C483.364 291.176 478.149 286.676 472.816 285.047C471.632 295.117 477.786 305.453 486.64 310.065C486.357 314.275 485.9 318.424 485.274 322.492C482.553 315.577 477.253 309.457 471.199 307.035C468.167 317.659 473.537 329.305 482.856 334.56C481.897 338.414 480.774 342.171 479.49 345.817C477.656 336.38 472.251 327.021 465.422 322.595C461.062 334.294 465.532 348.867 474.895 356.945C471.743 363.548 467.947 369.877 463.717 375.938C464.932 363.721 461.479 350.411 454.248 342.581C443.647 355.688 443.967 375.718 453.63 389.042C449.143 394.386 444.411 399.498 439.608 404.385C443.406 393.035 442.166 379.33 435.786 370.623C422.86 381.384 420.563 400.743 429.395 414.403C424.548 419.009 419.757 423.393 415.202 427.561L415.201 427.561C413.462 429.152 411.758 430.712 410.098 432.24C408.817 433.29 408.63 435.181 409.68 436.462C410.731 437.743 412.621 437.93 413.902 436.879C420.235 431.686 426.711 426.149 433.092 420.246C449.22 429.683 470.361 424.929 480.375 408.266C471.359 402.554 458.755 401.882 447.866 405.625C451.496 401.755 455.027 397.749 458.407 393.604C475.697 395.908 494.364 384.944 499.855 367.97C491.212 366.506 480.86 369.207 472.132 374.492C475.347 369.318 478.275 363.955 480.844 358.399C495.07 358.886 509.888 349.594 514.586 335.886C505.633 334.526 494.473 338.291 486.124 344.789C486.997 342.035 487.778 339.222 488.466 336.358C501.726 333.905 512.861 321.638 513.076 307.819C505.032 308.779 496.539 314.592 491.056 322.135C491.523 318.449 491.843 314.705 492.014 310.917C503.749 306.905 512.863 294.61 512.255 281.995C504.513 283.788 496.631 290.562 492.041 298.613C491.95 296.356 491.807 294.089 491.61 291.815C501.392 287.147 507.416 274.781 504.465 264.135C497.888 267.312 492.309 275.559 490.69 283.762C490.103 279.623 489.337 275.472 488.387 271.326C495.857 265.02 498.788 253.191 494.395 244.25C489.88 247.584 486.566 253.92 485.453 260.419C484.445 257.164 483.32 253.921 482.074 250.7C487.913 244.828 489.083 234.39 484.238 227.479C480.605 231.153 478.697 237.733 479.167 243.707C478.593 242.419 477.999 241.135 477.385 239.857C479.968 233.019 477.561 224.226 471.428 220C468.591 226.287 470.843 236.685 476.465 241.315Z" fill="white"/>
<path d="M101.108 84.6407C99.3332 82.202 97.3138 80.8141 95.0496 80.477C92.7853 80.1398 89.4828 80.6095 85.1419 81.8861C80.8011 83.1627 77.225 83.7972 74.4136 83.7898C71.6083 83.7437 69.1202 83.193 66.9494 82.1377C64.7846 81.0438 62.8883 79.3782 61.2603 77.1409C58.4439 73.2703 57.4105 69.1461 58.1601 64.7681C58.932 60.3739 61.4099 56.6546 65.5936 53.6103C68.4574 51.5264 71.4801 50.3194 74.6616 49.989C77.8269 49.6363 80.8438 50.1614 83.7125 51.5644C86.5812 52.9674 89.0086 55.0336 90.9947 57.7631L84.8198 62.2563C82.622 59.236 80.1936 57.4271 77.5347 56.8296C74.8757 56.2322 72.1815 56.9266 69.4519 58.9127C66.9685 60.7197 65.5491 62.8134 65.1937 65.1936C64.8383 67.5738 65.5722 70.0168 67.3956 72.5226C68.8933 74.5809 70.8852 75.7664 73.3711 76.0791C75.8571 76.3917 79.0427 75.9729 82.9279 74.8226C88.894 72.9109 93.7528 72.3696 97.5042 73.1987C101.278 74.0115 104.532 76.2972 107.267 80.0559C110.149 84.016 111.174 88.129 110.343 92.3951C109.496 96.6389 106.857 100.372 102.427 103.596C99.5861 105.663 96.5096 106.961 93.1979 107.489C89.8923 107.978 86.7319 107.608 83.7168 106.38C80.7078 105.114 78.1451 103.026 76.0287 100.118L82.2037 95.6243C84.4015 98.6447 86.9499 100.383 89.8488 100.84C92.7702 101.281 95.6851 100.443 98.5936 98.3269C101.301 96.3571 102.832 94.1821 103.187 91.8018C103.543 89.4216 102.85 87.0346 101.108 84.6407Z" fill="white"/>
<path d="M132.643 27.92L118.4 34.9781L142.32 83.2485L135.515 86.6209L111.594 38.3505L97.3885 45.3902L94.4768 39.5144L129.731 22.0443L132.643 27.92Z" fill="white"/>
<path d="M176.55 40.8859L156.225 47.5016L162.853 67.866L186.533 60.1584L188.549 66.3545L157.648 76.413L138.944 18.9507L169.451 9.02069L171.481 15.2563L148.196 22.8355L154.208 41.3055L174.533 34.6898L176.55 40.8859Z" fill="white"/>
<path d="M199.136 40.7435L202.632 64.1409L195.12 65.2635L186.189 5.4974L205.235 2.65122C210.791 1.82109 215.405 2.83813 219.078 5.70235C222.747 8.5392 224.995 12.7215 225.821 18.2493C226.68 23.9961 225.823 28.6562 223.252 32.2298C220.704 35.7719 216.688 38.0087 211.204 38.9401L199.136 40.7435ZM198.173 34.299L209.707 32.5753C213.046 32.0764 215.455 30.6952 216.935 28.4317C218.416 26.1682 218.878 23.1757 218.321 19.454C217.786 15.8691 216.44 13.1327 214.283 11.2448C212.127 9.35695 209.447 8.65224 206.246 9.13069L194.67 10.8605L198.173 34.299Z" fill="white"/>
<path d="M242.111 37.3428V61H234.516V0.570312H253.774C259.391 0.570312 263.804 2.25814 267.014 5.63379C270.223 8.98177 271.828 13.4504 271.828 19.0396C271.828 24.8501 270.292 29.3325 267.221 32.4868C264.178 35.6134 259.875 37.2321 254.313 37.3428H242.111ZM242.111 30.8267H253.774C257.15 30.8267 259.737 29.8167 261.535 27.7969C263.334 25.777 264.233 22.8856 264.233 19.1226C264.233 15.4979 263.306 12.5926 261.452 10.4067C259.598 8.22087 257.053 7.12793 253.815 7.12793H242.111V30.8267Z" fill="white"/>
<path d="M309.186 36.6744L287.876 35.0111L286.21 56.3622L311.037 58.3001L310.529 64.7964L278.13 62.2675L282.833 2.02107L314.818 4.51767L314.308 11.0554L289.895 9.14985L288.383 28.5148L309.693 30.1781L309.186 36.6744Z" fill="white"/>
<path d="M317.783 65.8589L340.01 9.66525L356.026 16.0004C361.147 18.0256 364.5 20.795 366.085 24.3084C367.697 27.8321 367.516 32.0897 365.541 37.0813C364.503 39.7057 362.931 41.7619 360.825 43.2497C358.719 44.7376 356.328 45.5921 353.652 45.8131C355.92 47.6027 357.326 49.989 357.872 52.9721C358.444 55.9654 358.063 59.1474 356.73 62.518C354.735 67.561 351.779 70.9738 347.86 72.7564C343.967 74.5492 339.461 74.433 334.34 72.4078L317.783 65.8589ZM335.242 42.3696L327.243 62.5932L336.891 66.4095C339.567 67.4679 342.036 67.4327 344.298 66.3039C346.569 65.1493 348.336 62.9768 349.598 59.7863C352.275 53.0194 350.757 48.5063 345.045 46.247L335.242 42.3696ZM337.593 36.426L346.662 40.0134C349.107 40.9802 351.401 40.9354 353.544 39.879C355.714 38.8327 357.338 36.9459 358.417 34.2186C359.638 31.131 359.841 28.6228 359.027 26.694C358.223 24.7395 356.419 23.2076 353.615 22.0983L344.661 18.5568L337.593 36.426Z" fill="white"/>
<path d="M366.873 85.8437L359.967 82.6824L385.119 27.7357L392.025 30.8969L366.873 85.8437Z" fill="white"/>
<path d="M404.567 76.7495L395.249 71.644L383.503 93.0828L376.805 89.4132L405.842 36.417L420.693 44.5538C425.886 47.399 429.072 50.9117 430.252 55.0919C431.446 59.2479 430.613 63.9345 427.755 69.1516C425.96 72.4274 423.663 74.8919 420.864 76.545C418.103 78.1872 415.061 78.9024 411.738 78.6908L409.658 106.845L409.418 107.282L402.248 103.353L404.567 76.7495ZM398.38 65.9295L406.461 70.3568C409.251 71.8858 411.963 72.2045 414.597 71.3129C417.255 70.4346 419.409 68.491 421.057 65.4821C424.78 58.6877 423.56 53.602 417.396 50.225L409.389 45.8375L398.38 65.9295Z" fill="white"/>
<path d="M415.903 112.007L451.63 63.2703L463.246 71.7851C468.936 75.9566 472.046 80.9809 472.575 86.8579C473.12 92.7127 471.029 98.8646 466.301 105.314L460.314 113.481C455.586 119.93 450.334 123.748 444.559 124.935C438.799 126.099 432.885 124.456 426.815 120.007L415.903 112.007ZM453.879 73.0495L425.881 111.242L430.801 114.849C435.108 118.007 439.154 119.086 442.94 118.087C446.742 117.066 450.44 114.151 454.034 109.341L460.365 100.705C464.128 95.5724 465.891 91.0843 465.656 87.2406C465.459 83.391 463.363 80.0021 459.368 77.0738L453.879 73.0495Z" fill="white"/>
<path d="M350.193 446.602L350.17 446.617L351.75 476.203L353.214 478.614L365.381 471.229L369.92 478.706L373.836 476.329L369.297 468.852L372.881 466.677L370.853 463.336L367.269 465.511L361.446 455.919L357.555 458.335L363.354 467.888L355.522 472.642L354.082 452.864L350.193 446.602Z" fill="white"/>
<path d="M151.271 471.223C151.95 469.47 151.995 467.943 151.407 466.642C150.82 465.341 149.458 463.769 147.323 461.924C145.188 460.08 143.648 458.42 142.703 456.944C141.779 455.458 141.228 453.968 141.048 452.473C140.89 450.969 141.123 449.413 141.746 447.804C142.824 445.021 144.637 443.086 147.185 442.001C149.749 440.922 152.535 440.964 155.544 442.129C157.603 442.927 159.256 444.104 160.504 445.66C161.758 447.2 162.501 448.959 162.734 450.936C162.968 452.914 162.704 454.884 161.944 456.846L157.504 455.127C158.345 452.955 158.473 451.071 157.888 449.476C157.304 447.88 156.03 446.702 154.067 445.942C152.281 445.251 150.704 445.214 149.337 445.831C147.969 446.449 146.936 447.658 146.239 449.46C145.666 450.94 145.717 452.385 146.392 453.794C147.068 455.202 148.363 456.731 150.278 458.379C153.295 460.86 155.219 463.224 156.051 465.471C156.9 467.723 156.801 470.201 155.754 472.904C154.651 475.752 152.841 477.678 150.325 478.683C147.814 479.672 144.966 479.55 141.781 478.316C139.737 477.525 138.018 476.35 136.623 474.793C135.251 473.225 134.377 471.444 134.003 469.449C133.651 467.444 133.879 465.395 134.689 463.304L139.13 465.023C138.289 467.195 138.238 469.118 138.977 470.792C139.733 472.472 141.156 473.717 143.248 474.527C145.194 475.281 146.852 475.349 148.219 474.732C149.587 474.114 150.604 472.945 151.271 471.223Z" fill="white"/>
<path d="M161.233 487.791L156.845 486.01L171.012 451.095L175.4 452.876L161.233 487.791Z" fill="white"/>
<path d="M188.038 498.972L192.526 500.564L205.122 465.052L200.683 463.477L190.933 490.965L186.414 458.416L181.927 456.825L169.331 492.337L173.819 493.929L183.525 466.563L188.038 498.972Z" fill="white"/>
<path d="M226.719 496.661C225.899 500.619 224.302 503.498 221.93 505.296C219.575 507.097 216.538 507.711 212.821 507.137C209.087 506.561 206.339 504.688 204.576 501.518C202.816 498.331 202.311 494.308 203.061 489.448L204.103 482.696C204.851 477.854 206.567 474.2 209.252 471.734C211.954 469.27 215.257 468.34 219.162 468.943C222.759 469.498 225.372 471.01 226.998 473.478C228.644 475.931 229.244 479.175 228.796 483.208L224.064 482.478C224.328 479.411 224.023 477.147 223.149 475.685C222.274 474.224 220.738 473.323 218.538 472.984C215.997 472.591 213.891 473.288 212.219 475.072C210.55 476.839 209.419 479.641 208.827 483.478L207.773 490.306C207.191 494.075 207.376 497.062 208.327 499.269C209.296 501.478 210.999 502.771 213.437 503.147C215.875 503.524 217.725 503.189 218.986 502.145C220.247 501.1 221.248 499.029 221.988 495.931L226.719 496.661Z" fill="white"/>
<path d="M239.119 492.424L252.418 493.298L252.684 489.243L239.385 488.37L240.179 476.285L255.415 477.285L255.682 473.205L235.721 471.894L233.252 509.493L253.471 510.821L253.738 506.767L238.244 505.749L239.119 492.424Z" fill="white"/>
<path d="M298.883 506.922L278.024 509.861L277.543 506.453L286.192 490.86C287.492 488.464 288.352 486.531 288.772 485.061C289.207 483.571 289.314 482.048 289.095 480.494C288.816 478.512 288.129 476.971 287.033 475.871C285.937 474.771 284.637 474.327 283.134 474.539C281.238 474.806 279.861 475.671 279.004 477.133C278.162 478.576 277.915 480.527 278.261 482.988L273.725 483.627C273.242 480.193 273.79 477.284 275.371 474.901C276.951 472.518 279.356 471.099 282.585 470.644C285.558 470.225 288.027 470.809 289.993 472.396C291.956 473.966 293.151 476.263 293.577 479.287C294.097 482.977 292.791 487.613 289.657 493.194L282.885 505.23L298.338 503.052L298.883 506.922Z" fill="white"/>
<path fill-rule="evenodd" clip-rule="evenodd" d="M325.516 496.516C326.389 493.435 326.124 489.208 324.722 483.832L323.057 477.446C321.658 472.427 319.842 468.88 317.607 466.806C315.389 464.728 312.636 464.118 309.347 464.975C306.008 465.846 303.888 467.799 302.985 470.833C302.1 473.864 302.351 478.041 303.74 483.367L305.373 489.627C306.776 494.735 308.612 498.357 310.881 500.493C313.15 502.629 315.912 503.273 319.167 502.424C322.523 501.549 324.639 499.579 325.516 496.516ZM315.14 470.472C316.466 472.069 317.632 474.796 318.637 478.653L320.603 486.19C321.545 489.938 321.828 492.833 321.451 494.875C321.074 496.917 319.984 498.173 318.181 498.643C316.361 499.117 314.759 498.51 313.373 496.821C311.984 495.115 310.788 492.342 309.787 488.503L307.827 480.99C306.916 477.359 306.653 474.539 307.038 472.531C307.42 470.506 308.52 469.256 310.34 468.782C312.21 468.294 313.81 468.857 315.14 470.472Z" fill="white"/>
<path d="M348.949 490.271L344.684 492.012L332.625 462.47L326.633 468.745L324.99 464.72L333.969 455.492L334.64 455.219L348.949 490.271Z" fill="white"/>
</svg>
