<svg width="256" height="130" viewBox="0 0 256 130" fill="none" xmlns="http://www.w3.org/2000/svg">
<path d="M34 15.5H22.5V12H15V15.5L34 23.5V40.5L25 48H0V32H13V37H20V32L0 25V7.5L10 0.5H34V15.5Z" fill="white"/>
<path d="M56.5 12V1H71L75.5 33.5L79 1H96.5L101 33.5L103.5 1H119.5V12H116.5L112 48.5H92L87.5 15L84 48.5H64.5L59.5 12H56.5Z" fill="white"/>
<path fill-rule="evenodd" clip-rule="evenodd" d="M141.5 48.5V37H143.5L150.5 0.5H174L180.5 37H183V48.5H168L165 37H159L156 48.5H141.5ZM159.5 27H164L162 10.5L159.5 27Z" fill="white"/>
<path d="M212 37.5V48.5H232V37.5H229.5V11H232.5V19H242.5V0.5H202.5V19H212V11H214.5V37.5H212Z" fill="white"/>
<path d="M50.5 44C50.5 46.7614 48.2614 49 45.5 49C42.7386 49 40.5 46.7614 40.5 44C40.5 41.2386 42.7386 39 45.5 39C48.2614 39 50.5 41.2386 50.5 44Z" fill="white"/>
<path d="M135.5 44C135.5 46.7614 133.261 49 130.5 49C127.739 49 125.5 46.7614 125.5 44C125.5 41.2386 127.739 39 130.5 39C133.261 39 135.5 41.2386 135.5 44Z" fill="white"/>
<path d="M198.5 44C198.5 46.7614 196.261 49 193.5 49C190.739 49 188.5 46.7614 188.5 44C188.5 41.2386 190.739 39 193.5 39C196.261 39 198.5 41.2386 198.5 44Z" fill="white"/>
<path d="M255.5 44C255.5 46.7614 253.261 49 250.5 49C247.739 49 245.5 46.7614 245.5 44C245.5 41.2386 247.739 39 250.5 39C253.261 39 255.5 41.2386 255.5 44Z" fill="white"/>
<path d="M41 119.285L42.1055 114.058C44.8024 115.167 48.0688 115.721 51.9046 115.721C54.769 115.721 56.3854 114.85 56.754 113.108C57.089 111.524 56.2933 110.732 54.367 110.732H49.5931C44.2329 110.732 42.0888 108.198 43.1608 103.13C44.2664 97.9033 48.7304 95.2901 56.5529 95.2901C59.8696 95.2901 62.893 95.7652 65.6234 96.7155L64.5179 101.942C61.821 100.833 58.7556 100.279 55.3218 100.279C51.7204 100.279 49.7354 101.15 49.3669 102.892C49.0319 104.476 49.9113 105.268 52.0051 105.268H56.2766C62.1393 105.268 64.5346 107.802 63.4626 112.87C62.357 118.097 58.0689 120.71 50.5981 120.71C46.9297 120.71 43.7303 120.235 41 119.285Z" fill="white"/>
<path d="M81.2658 95.5276C88.7701 95.5276 91.9946 98.0142 90.9393 102.987C89.884 107.96 85.8136 110.447 78.7281 110.447H72.12C71.4164 113.805 73.3763 115.483 77.9994 115.483C81.5003 115.483 84.8002 114.454 87.899 112.395L86.8437 117.384C84.0799 119.443 80.6125 120.472 76.4416 120.472C67.7145 120.472 64.2472 116.22 66.0395 107.715C67.7648 99.5901 72.8402 95.5276 81.2658 95.5276ZM73.0999 105.838H79.7582C82.5221 105.838 84.0966 104.943 84.4819 103.154C84.8504 101.364 83.4266 100.469 80.2105 100.469C76.5254 100.469 74.1552 102.259 73.0999 105.838Z" fill="white"/>
<path d="M110.25 117.384C107.637 119.443 104.739 120.472 101.556 120.472C93.1812 120.472 89.8897 116.236 91.682 107.762C93.4073 99.6059 98.7926 95.5276 107.838 95.5276C110.351 95.5276 112.645 95.7652 114.722 96.2403L113.667 101.229C111.59 100.754 109.463 100.517 107.285 100.517C102.344 100.517 99.3621 102.932 98.3404 107.762C97.2516 112.91 98.8429 115.483 103.114 115.483C105.962 115.483 108.692 114.454 111.305 112.395L110.25 117.384Z" fill="white"/>
<path d="M142.727 95.5276L137.45 120.472H131.546V117.384C127.5 120.472 125.222 120.472 120.314 120.472C115.239 120.472 113.271 117.772 114.41 112.371L117.978 95.5276H124.636L121.068 112.443C120.649 114.406 121.638 115.388 124.033 115.388C127.199 115.388 129 115.721 132.501 112.799L136.068 95.5276H142.727Z" fill="white"/>
<path d="M142.213 120.472L147.49 95.5276H153.394V97.5C154 95 158.646 95.5276 162.063 95.5276L160.932 100.849C157.615 100.849 155.5 99 152.339 102.56L148.872 120.472H142.213Z" fill="white"/>
<path d="M172.328 89L171.273 93.989H164.614L165.67 89H172.328ZM170.946 95.5276L165.67 120.472H159.011L164.288 95.5276H170.946Z" fill="white"/>
<path d="M176.563 91.489H181.488L181.639 95.5276H187.77L186.714 100.517H181.312L178.875 111.991C178.389 114.319 179.21 115.483 181.337 115.483H183.548L182.493 120.472H177.066C172.644 120.472 170.91 118.231 171.865 113.749L176.563 91.489Z" fill="white"/>
<path d="M205.5 116C202 120.472 198.496 120.472 193.588 120.472C188.512 120.472 186.544 117.772 187.683 112.371L191.251 95.5276H197.909L194.341 112.443C193.923 114.406 194.911 115.388 197.306 115.388C200.472 115.388 201 115.483 205.5 112.443L209.342 95.5276H216L210.724 120.472C209.451 126.491 204.099 129.5 194.668 129.5C191.418 129.5 188.621 129.104 186.276 128.312L187.331 123.323C189.727 124.115 192.541 124.511 195.774 124.511C200.732 124.511 203.496 123.165 204.065 120.472L205.5 116Z" fill="white"/>
</svg>
