<svg width="940" height="364" viewBox="0 0 940 364" fill="none" xmlns="http://www.w3.org/2000/svg">
<path d="M111 55.5C111 86.1518 86.1518 111 55.5 111C24.8482 111 0 86.1518 0 55.5C0 24.8482 24.8482 0 55.5 0C86.1518 0 111 24.8482 111 55.5Z" fill="#F2F2F2"/>
<path d="M111 181.5C111 212.152 86.1518 237 55.5 237C24.8482 237 0 212.152 0 181.5C0 150.848 24.8482 126 55.5 126C86.1518 126 111 150.848 111 181.5Z" fill="#F2F2F2"/>
<path d="M111 308.5C111 339.152 86.1518 364 55.5 364C24.8482 364 0 339.152 0 308.5C0 277.848 24.8482 253 55.5 253C86.1518 253 111 277.848 111 308.5Z" fill="#F2F2F2"/>
<path d="M240 55.5C240 86.1518 215.152 111 184.5 111C153.848 111 129 86.1518 129 55.5C129 24.8482 153.848 0 184.5 0C215.152 0 240 24.8482 240 55.5Z" fill="#F2F2F2"/>
<path d="M240 308.5C240 339.152 215.152 364 184.5 364C153.848 364 129 339.152 129 308.5C129 277.848 153.848 253 184.5 253C215.152 253 240 277.848 240 308.5Z" fill="#F2F2F2"/>
<path d="M368 55.5C368 86.1518 343.152 111 312.5 111C281.848 111 257 86.1518 257 55.5C257 24.8482 281.848 0 312.5 0C343.152 0 368 24.8482 368 55.5Z" fill="#F2F2F2"/>
<path d="M368 181.5C368 212.152 343.152 237 312.5 237C281.848 237 257 212.152 257 181.5C257 150.848 281.848 126 312.5 126C343.152 126 368 150.848 368 181.5Z" fill="#F2F2F2"/>
<path d="M240 181.5C240 212.152 215.152 237 184.5 237C153.848 237 129 212.152 129 181.5C129 150.848 153.848 126 184.5 126C215.152 126 240 150.848 240 181.5Z" fill="#F2F2F2"/>
<path d="M368 308.5C368 339.152 343.152 364 312.5 364C281.848 364 257 339.152 257 308.5C257 277.848 281.848 253 312.5 253C343.152 253 368 277.848 368 308.5Z" fill="#F2F2F2"/>
<path d="M240 181.5C240 212.152 215.152 237 184.5 237C153.848 237 129 212.152 129 181.5C129 150.848 153.848 126 184.5 126C215.152 126 240 150.848 240 181.5Z" fill="white"/>
<path d="M583.045 28.7225H518.17V205H482.303V28.7225H418V0H583.045V28.7225Z" fill="white"/>
<path d="M646.634 176.559H741.088V205H610.481V0H646.634V176.559Z" fill="white"/>
<path d="M885.271 157.27H804.677L787.815 205H750.234L828.827 0H861.264L940 205H902.275L885.271 157.27ZM814.823 128.547H875.125L844.974 43.5062L814.823 128.547Z" fill="white"/>
<path d="M511.719 347.909C507.459 353.01 501.437 356.98 493.653 359.82C485.87 362.607 477.245 364 467.778 364C457.838 364 449.108 361.844 441.587 357.532C434.119 353.168 428.334 346.857 424.232 338.602C420.183 330.346 418.105 320.644 418 309.496V301.687C418 290.224 419.92 280.312 423.759 271.951C427.651 263.537 433.225 257.122 440.483 252.705C447.793 248.235 456.339 246 466.122 246C479.743 246 490.393 249.26 498.071 255.781C505.749 262.249 510.299 271.688 511.719 284.098H488.683C487.632 277.525 485.291 272.713 481.662 269.663C478.086 266.613 473.143 265.088 466.831 265.088C458.785 265.088 452.658 268.112 448.451 274.159C444.243 280.206 442.113 289.198 442.061 301.135V308.471C442.061 320.512 444.348 329.61 448.924 335.762C453.499 341.914 460.205 344.991 469.04 344.991C477.928 344.991 484.266 343.098 488.052 339.312V319.513H466.516V302.082H511.719V347.909Z" fill="white"/>
<path d="M573.488 320.381H554.634V362.422H530.967V247.578H573.645C587.214 247.578 597.68 250.601 605.043 256.648C612.406 262.696 616.087 271.241 616.087 282.283C616.087 290.119 614.378 296.665 610.959 301.924C607.593 307.13 602.466 311.284 595.576 314.386L620.426 361.318V362.422H595.024L573.488 320.381ZM554.634 301.214H573.724C579.667 301.214 584.269 299.715 587.53 296.718C590.79 293.668 592.421 289.488 592.421 284.176C592.421 278.76 590.869 274.501 587.766 271.398C584.716 268.296 580.009 266.745 573.645 266.745H554.634V301.214Z" fill="white"/>
<path d="M728.502 307.603C728.502 318.909 726.504 328.821 722.507 337.34C718.51 345.858 712.777 352.431 705.309 357.059C697.894 361.686 689.374 364 679.749 364C670.23 364 661.737 361.713 654.269 357.138C646.801 352.563 641.016 346.042 636.913 337.576C632.811 329.057 630.734 319.277 630.681 308.234V302.555C630.681 291.249 632.706 281.311 636.756 272.739C640.858 264.115 646.617 257.516 654.032 252.941C661.5 248.314 670.02 246 679.592 246C689.163 246 697.657 248.314 705.072 252.941C712.54 257.516 718.299 264.115 722.349 272.739C726.451 281.311 728.502 291.223 728.502 302.476V307.603ZM704.52 302.397C704.52 290.355 702.364 281.205 698.051 274.948C693.739 268.69 687.586 265.561 679.592 265.561C671.65 265.561 665.523 268.664 661.211 274.869C656.898 281.021 654.716 290.066 654.663 302.003V307.603C654.663 319.329 656.819 328.426 661.132 334.894C665.444 341.362 671.65 344.596 679.749 344.596C687.691 344.596 693.791 341.494 698.051 335.289C702.311 329.031 704.468 319.934 704.52 307.997V302.397Z" fill="white"/>
<path d="M832.634 247.578V323.221C832.634 335.788 828.689 345.727 820.801 353.036C812.964 360.345 802.236 364 788.614 364C775.204 364 764.554 360.451 756.665 353.352C748.776 346.253 744.753 336.498 744.595 324.088V247.578H768.261V323.378C768.261 330.898 770.05 336.393 773.626 339.864C777.255 343.282 782.251 344.991 788.614 344.991C801.92 344.991 808.678 337.997 808.889 324.009V247.578H832.634Z" fill="white"/>
<path d="M875.707 321.959V362.422H852.04V247.578H896.848C905.473 247.578 913.047 249.155 919.568 252.31C926.142 255.465 931.191 259.961 934.715 265.798C938.238 271.582 940 278.182 940 285.596C940 296.849 936.135 305.736 928.404 312.257C920.725 318.725 910.075 321.959 896.454 321.959H875.707ZM875.707 302.791H896.848C903.107 302.791 907.866 301.319 911.127 298.374C914.44 295.43 916.097 291.223 916.097 285.754C916.097 280.127 914.44 275.579 911.127 272.108C907.814 268.638 903.238 266.85 897.401 266.745H875.707V302.791Z" fill="white"/>
</svg>
